<svg id="GMA-logo-left-aligned-negative" xmlns="http://www.w3.org/2000/svg" width="298.907" height="120" viewBox="0 0 298.907 120">
  <g id="Group_894" data-name="Group 894" transform="translate(96.518 19.351)">
    <path id="Path_16720" data-name="Path 16720" d="M252.431,398.379h-6.724V396.6h8.66a8.057,8.057,0,0,1,.053,1.073c0,5.389-3.663,9-8.9,9a9.187,9.187,0,0,1-9.418-9.418,9.3,9.3,0,0,1,9.5-9.418c4.211,0,7.56,2.512,8.318,6.07h-2.04c-.5-2.329-2.929-4.238-6.278-4.238a7.277,7.277,0,0,0-7.456,7.586c0,4.369,2.957,7.587,7.378,7.587A6.555,6.555,0,0,0,252.431,398.379Z" transform="translate(-236.107 -387.836)" fill="#b1b1b1"/>
    <path id="Path_16721" data-name="Path 16721" d="M272.131,397.254a9.418,9.418,0,1,1-9.417-9.418A9.346,9.346,0,0,1,272.131,397.254Zm-2.04,0a7.38,7.38,0,1,0-7.377,7.587A7.322,7.322,0,0,0,270.091,397.254Z" transform="translate(-230.074 -387.836)" fill="#b1b1b1"/>
    <path id="Path_16722" data-name="Path 16722" d="M272.788,406.342h-1.936V388.03h8.032c4.054,0,6.331,2.12,6.331,5.624,0,3.14-2.014,5.311-5.337,5.73l5.493,6.958h-2.249l-5.416-6.905h-4.918Zm5.781-8.684c3.009,0,4.657-1.36,4.657-3.925,0-2.59-1.6-3.9-4.657-3.9h-5.781v7.822Z" transform="translate(-223.911 -387.768)" fill="#b1b1b1"/>
    <path id="Path_16723" data-name="Path 16723" d="M291.318,406.342H285.2V388.03h6.174c5.781,0,9.653,3.819,9.653,9.1C301.022,402.471,297.15,406.342,291.318,406.342Zm0-1.831c4.943,0,7.637-3.034,7.637-7.377,0-4.291-2.694-7.273-7.586-7.273h-4.238v14.649Z" transform="translate(-218.876 -387.768)" fill="#b1b1b1"/>
    <path id="Path_16724" data-name="Path 16724" d="M319.362,397.254a9.419,9.419,0,1,1-9.418-9.418A9.346,9.346,0,0,1,319.362,397.254Zm-2.041,0a7.38,7.38,0,1,0-7.377,7.587A7.322,7.322,0,0,0,317.321,397.254Z" transform="translate(-213.495 -387.836)" fill="#b1b1b1"/>
    <path id="Path_16725" data-name="Path 16725" d="M319.853,387.991l11.7,15.3V388.044h1.909v18.364h-1.752l-11.694-15.3v15.252H318.1V387.991Z" transform="translate(-207.325 -387.782)" fill="#b1b1b1"/>
    <path id="Path_16726" data-name="Path 16726" d="M238.828,415.846v13.6h-2.721V411.111h2.7l7.141,12.008,7.141-12.008h2.668V429.45H252.98V415.872L246.938,426.1H244.9Z" transform="translate(-236.107 -379.666)" fill="#b1b1b1"/>
    <path id="Path_16727" data-name="Path 16727" d="M254.244,422.014V411.13h2.772v10.516c0,3.741,1.963,5.493,5,5.493s5-1.752,5-5.493V411.13h2.748v10.884c0,5.126-3.375,7.716-7.77,7.716S254.244,427.14,254.244,422.014Z" transform="translate(-229.741 -379.659)" fill="#b1b1b1"/>
    <path id="Path_16728" data-name="Path 16728" d="M272.07,429.443h-2.747V411.13h8.136c4.291,0,6.644,2.329,6.644,5.834,0,3.009-1.858,5.207-5.074,5.782l5.205,6.7h-3.14l-5.1-6.54H272.07Zm5.049-9.026c2.721,0,4.16-1.2,4.16-3.4s-1.413-3.375-4.16-3.375H272.07v6.775Z" transform="translate(-224.448 -379.659)" fill="#b1b1b1"/>
    <path id="Path_16729" data-name="Path 16729" d="M286.684,429.443h-2.747V411.13h8.136c4.291,0,6.644,2.329,6.644,5.834,0,3.009-1.858,5.207-5.074,5.782l5.205,6.7h-3.14l-5.1-6.54h-3.925Zm5.05-9.026c2.72,0,4.158-1.2,4.158-3.4s-1.412-3.375-4.158-3.375h-5.05v6.775Z" transform="translate(-219.318 -379.659)" fill="#b1b1b1"/>
    <path id="Path_16730" data-name="Path 16730" d="M311.079,424.878h-8.973l-1.936,4.579h-2.8l8.032-18.366h2.459l8.006,18.366H313.04Zm-7.9-2.537h6.828l-3.4-8.057Z" transform="translate(-214.603 -379.673)" fill="#b1b1b1"/>
    <path id="Path_16731" data-name="Path 16731" d="M319.329,419.868l5.624-8.738h3.113l-7.378,11.328v6.985h-2.747v-6.959l-7.351-11.354h3.14Z" transform="translate(-209.962 -379.659)" fill="#b1b1b1"/>
    <path id="Path_16732" data-name="Path 16732" d="M249.86,448.809h-7.979l-1.464,3.741h-4.291l7.717-18.339H248l7.691,18.339h-4.342Zm-6.462-3.794h4.97l-2.485-6.253Z" transform="translate(-236.1 -371.558)" fill="#b1b1b1"/>
    <path id="Path_16733" data-name="Path 16733" d="M253.354,445.088V434.23h4.211v10.36c0,3.088,1.439,4.318,3.872,4.318s3.9-1.229,3.9-4.318V434.23h4.16v10.858c0,5.31-3.584,7.77-8.084,7.77C256.937,452.858,253.354,450.4,253.354,445.088Z" transform="translate(-230.053 -371.551)" fill="#b1b1b1"/>
    <path id="Path_16734" data-name="Path 16734" d="M283.887,438.024h-5.415v14.519h-4.16V438.024H268.9V434.23h14.99Z" transform="translate(-224.597 -371.551)" fill="#b1b1b1"/>
    <path id="Path_16735" data-name="Path 16735" d="M301.992,443.469A9.668,9.668,0,1,1,292.339,434,9.461,9.461,0,0,1,301.992,443.469Zm-4.291,0a5.364,5.364,0,1,0-5.362,5.468A5.313,5.313,0,0,0,297.7,443.469Z" transform="translate(-219.766 -371.632)" fill="#b1b1b1"/>
    <path id="Path_16736" data-name="Path 16736" d="M304.744,441.17v11.38h-4.16V434.211h4.107l6.2,10.777,6.2-10.777h4.054V452.55h-4.185V441.221l-4.552,8.137h-3.087Z" transform="translate(-213.474 -371.558)" fill="#b1b1b1"/>
    <path id="Path_16737" data-name="Path 16737" d="M338.732,443.469A9.669,9.669,0,1,1,329.078,434,9.462,9.462,0,0,1,338.732,443.469Zm-4.291,0a5.364,5.364,0,1,0-5.364,5.468A5.313,5.313,0,0,0,334.441,443.469Z" transform="translate(-206.87 -371.632)" fill="#b1b1b1"/>
    <path id="Path_16738" data-name="Path 16738" d="M351.383,438.024h-5.415v14.519h-4.16V438.024h-5.414V434.23h14.988Z" transform="translate(-200.904 -371.551)" fill="#b1b1b1"/>
    <path id="Path_16739" data-name="Path 16739" d="M355.273,452.543h-4.187V434.23h4.187Z" transform="translate(-195.747 -371.551)" fill="#b1b1b1"/>
    <path id="Path_16740" data-name="Path 16740" d="M367.455,447.207l4.97-12.977h4.552l-7.456,18.34h-4.211l-7.429-18.34h4.63Z" transform="translate(-193.363 -371.551)" fill="#b1b1b1"/>
    <path id="Path_16741" data-name="Path 16741" d="M375.649,452.543V434.23H389.41V438h-9.575v3.453H388.7v3.767h-8.868v3.557h9.679v3.768Z" transform="translate(-187.125 -371.551)" fill="#b1b1b1"/>
  </g>
  <g id="Group_898" data-name="Group 898">
    <g id="Group_896" data-name="Group 896" transform="translate(0)">
      <g id="Group_895" data-name="Group 895">
        <path id="Path_16742" data-name="Path 16742" d="M164.666,373.513h0v120l79.024-.024V373.513ZM202.039,491.1H167.057V375.9h34.982Zm3.1,0h-1.929V375.9h1.929Zm36.157,0H206.314V375.9H241.3Z" transform="translate(-164.666 -373.513)" fill="#b1b1b1"/>
        <rect id="Rectangle_183" data-name="Rectangle 183" width="34.982" height="115.193" transform="translate(2.391 2.391)" fill="#0b2558" style="isolation: isolate"/>
        <rect id="Rectangle_184" data-name="Rectangle 184" width="34.984" height="115.193" transform="translate(41.648 2.391)" fill="#004136" style="isolation: isolate"/>
      </g>
      <rect id="Rectangle_185" data-name="Rectangle 185" width="1.929" height="115.193" transform="translate(38.546 2.391)" fill="#e63137"/>
    </g>
    <g id="Group_897" data-name="Group 897" transform="translate(10.843 19.328)">
      <path id="Path_16743" data-name="Path 16743" d="M186.435,396.433v0h0Z" transform="translate(-167.868 -384.795)" fill="none"/>
      <path id="Path_16744" data-name="Path 16744" d="M212.013,417.953a4.075,4.075,0,0,1,3.887-2.609H230V392.235a1.334,1.334,0,0,0-1.6,1.032c-.012.058-.728,5.219-.753,5.2a1.988,1.988,0,0,0-2.984-.254l2.479,2.6s-1.417,10.46-1.439,10.468c-9.54-2.489-16.623-3.074-20.241-1.733l-1.134-4.222h11.04a4.852,4.852,0,0,0,4.85-4.852H207.862a8.645,8.645,0,0,0,.58-1.473h11.527a4.851,4.851,0,0,0,4.85-4.852H208.447a8.711,8.711,0,0,0-.573-1.473h16.684a4.851,4.851,0,0,0,4.85-4.852H199.442c-4.591,0-6.238,1.875-7.175,3.284a6.237,6.237,0,0,0-.969,3.611,4.915,4.915,0,0,1,.089,1.246,1.562,1.562,0,0,1-.091.18l-1.67,2.793,1.632.526h0l-.748,1.423.9.567c-.026.024-.6.943-.6.943s.825.75.908.859c.12.147-.127.554-.127,1.213a.848.848,0,0,0,.923.851h5.607l-2.082.871.952,3.645,0,0c-2.674-1.227-9.584-1.479-20.11,1.352l-1.428-10.773s4.314.027,4.314-.008a1.588,1.588,0,0,0-.507-1.3,5.673,5.673,0,1,0-6.566-5.686v21.936h18.84a5.584,5.584,0,0,0,.715,7.843l1.985,7.89c-5.07,2.17-11.553,10.4-4.108,20.469,0-.059-1.37,1.308-1.37,1.258-4.129-3.9-7.6-16.2,3.291-22.571,0-.051-.913-3.128-.913-3.115-10.224,1.812-18.3,10.315-18.3,20.881,0,11.69,9.877,21.165,22.068,21.165s22.081-9.475,22.081-21.165a21.354,21.354,0,0,0-8.807-16.921l3.741-12.839C211.943,418.138,211.98,418.047,212.013,417.953Z" transform="translate(-172.692 -387.819)" fill="#b1b1b1"/>
      <path id="Path_16745" data-name="Path 16745" d="M186.435,396.433v0h0Z" transform="translate(-167.868 -384.795)" fill="none"/>
      <path id="Path_16746" data-name="Path 16746" d="M177.761,396.289a3.39,3.39,0,1,0-3.388-3.392A3.383,3.383,0,0,0,177.761,396.289Z" transform="translate(-172.102 -387.226)" fill="#ea0029"/>
      <path id="Path_16747" data-name="Path 16747" d="M200.874,419.376c9.976,3.813,19.374-3.6,19.378-3.571.091.865.249,3.848-2.3,8.151a8.706,8.706,0,0,1-4.868,3.649,10.075,10.075,0,0,1,5.815,5.627c1.382,3.781,1.167,10.075,1.144,10.039-7-9.377-11.663-10.483-11.686-10.573a23.674,23.674,0,0,0-7.924-12.243Z" transform="translate(-162.955 -377.995)" fill="#b1b1b1"/>
      <path id="Path_16748" data-name="Path 16748" d="M204.139,420.8l-.234.969c2.391.574,10.219,0,12.4-2.56l-.759-.646C213.7,420.731,206.346,421.332,204.139,420.8Z" transform="translate(-161.736 -377.027)" fill="#868686"/>
      <path id="Path_16749" data-name="Path 16749" d="M205.061,422.138l-.17.981c1.823.318,7.9-.109,9.3-1.163l-.594-.8C212.505,421.975,206.807,422.441,205.061,422.138Z" transform="translate(-161.39 -376.116)" fill="#868686"/>
      <path id="Path_16750" data-name="Path 16750" d="M206.751,427.434c4.3,1.594,7.9,5.905,8.43,6.69l.826-.561c-.035-.049-3.815-5.176-8.91-7.065Z" transform="translate(-160.737 -374.242)" fill="#868686"/>
      <path id="Path_16751" data-name="Path 16751" d="M206.5,426.038a10.964,10.964,0,0,1,7.9,4.8l.817-.574a11.97,11.97,0,0,0-8.644-5.218Z" transform="translate(-160.824 -374.752)" fill="#868686"/>
      <rect id="Rectangle_186" data-name="Rectangle 186" width="0.998" height="2.631" transform="translate(44.603 49.043) rotate(-84.236)" fill="#868686"/>
      <path id="Path_16752" data-name="Path 16752" d="M196.04,431.177,190.7,427.69l-.546.834,5.861,3.833,6.285-3.815-.517-.852Z" transform="translate(-166.561 -373.824)" fill="#868686"/>
      <path id="Path_16753" data-name="Path 16753" d="M195.983,436.24l-4.239-2.7-.535.842,4.756,3.025,5.108-3.025-.505-.858Z" transform="translate(-166.192 -371.775)" fill="#868686"/>
      <path id="Path_16754" data-name="Path 16754" d="M195.7,440.5l-3.41-2-.5.861,3.9,2.294,4.1-2.285-.484-.871S196.136,440.262,195.7,440.5Z" transform="translate(-165.99 -370.031)" fill="#868686"/>
      <path id="Path_16755" data-name="Path 16755" d="M201.711,432.947l-3.553-2.243-.534.84,4.067,2.571,4.362-2.574-.507-.858Z" transform="translate(-163.94 -372.773)" fill="#868686"/>
      <path id="Path_16756" data-name="Path 16756" d="M189.254,432.845l-3.545-2.087-.505.859,4.035,2.376,4.353-2.4-.484-.873Z" transform="translate(-168.3 -372.761)" fill="#868686"/>
      <path id="Path_16757" data-name="Path 16757" d="M201.358,437.9l-3.251-1.9-.5.861,3.736,2.182,4.042-2.213-.478-.877S201.789,437.66,201.358,437.9Z" transform="translate(-163.947 -370.924)" fill="#868686"/>
      <path id="Path_16758" data-name="Path 16758" d="M178.6,430.438l-3.252-1.844-.49.87,3.727,2.112,4.029-2.154-.469-.88Z" transform="translate(-171.932 -373.524)" fill="#868686"/>
      <path id="Path_16759" data-name="Path 16759" d="M179.123,427.33l-2.886-1.735-.515.852,3.384,2.035,3.64-2.051-.488-.867Z" transform="translate(-171.628 -374.57)" fill="#868686"/>
      <path id="Path_16760" data-name="Path 16760" d="M180.331,424.26l-2.383-1.517-.535.84,2.9,1.848,3.1-1.84-.507-.857S180.764,424,180.331,424.26Z" transform="translate(-171.035 -375.563)" fill="#868686"/>
      <path id="Path_16761" data-name="Path 16761" d="M200.011,441.741c-.385-.211-2.459-1.336-2.459-1.336l-.474.877L200,442.868l3.163-1.628-.454-.888Z" transform="translate(-164.132 -369.379)" fill="#868686"/>
      <path id="Path_16762" data-name="Path 16762" d="M180.1,437.117c-.365-.146-4.918-1.981-4.918-1.981l-.373.923,5.312,2.14,4.966-2.228-.409-.912Z" transform="translate(-171.95 -371.237)" fill="#868686"/>
      <path id="Path_16763" data-name="Path 16763" d="M178.7,434.04l-3.987-2.249-.49.869,4.464,2.517,4.826-2.566-.467-.88Z" transform="translate(-172.154 -372.405)" fill="#868686"/>
      <path id="Path_16764" data-name="Path 16764" d="M180.136,443.491l3.86,2.262,3.7-2.233-.517-.852-3.187,1.925c-.443-.258-3.346-1.962-3.346-1.962Z" transform="translate(-170.079 -368.579)" fill="#868686"/>
      <path id="Path_16765" data-name="Path 16765" d="M189.322,438.054l-2.867-1.764-.522.85,3.372,2.077,3.75-2.158-.5-.866S189.764,437.8,189.322,438.054Z" transform="translate(-168.044 -370.839)" fill="#868686"/>
      <path id="Path_16766" data-name="Path 16766" d="M189.452,442.035l-2.466-1.338-.476.875,2.929,1.591,3.159-1.628-.457-.888Z" transform="translate(-167.841 -369.275)" fill="#868686"/>
      <path id="Path_16767" data-name="Path 16767" d="M189.644,445.722l-2.466-1.336-.476.877,2.93,1.586,3.159-1.623-.457-.888Z" transform="translate(-167.774 -367.98)" fill="#868686"/>
      <path id="Path_16768" data-name="Path 16768" d="M195.419,444.4l-2.466-1.338-.474.877,2.928,1.59,3.159-1.628-.454-.888Z" transform="translate(-165.746 -368.446)" fill="#868686"/>
      <path id="Path_16769" data-name="Path 16769" d="M182.784,441.1l-6.2-2.536-.377.923,6.616,2.706,5.893-2.952-.446-.892S183.161,440.913,182.784,441.1Z" transform="translate(-171.457 -370.081)" fill="#868686"/>
      <path id="Path_16770" data-name="Path 16770" d="M182.587,421.153l-2.151-1.075-.444.892,2.584,1.293,2.809-1.34-.428-.9Z" transform="translate(-170.13 -376.514)" fill="#868686"/>
    </g>
  </g>
</svg>
